<svg width="24" height="24" viewBox="0 0 24 24" fill="none" xmlns="http://www.w3.org/2000/svg"><path d="M6 7C7.10457 7 8 6.10457 8 5C8 3.89543 7.10457 3 6 3C4.89543 3 4 3.89543 4 5C4 6.10457 4.89543 7 6 7Z" stroke="#F5F6F8" stroke-width="1.5" stroke-linecap="round" stroke-linejoin="round"/><path d="M18 13C19.1046 13 20 12.1046 20 11C20 9.89543 19.1046 9 18 9C16.8954 9 16 9.89543 16 11C16 12.1046 16.8954 13 18 13Z" stroke="#F5F6F8" stroke-width="1.5" stroke-linecap="round" stroke-linejoin="round"/><path d="M9.5 5H15C16.1046 5 17 5.89543 17 7V8.5" stroke="#F5F6F8" stroke-width="1.5" stroke-linecap="round" stroke-linejoin="round"/><path d="M6 19C7.10457 19 8 18.1046 8 17C8 15.8954 7.10457 15 6 15C4.89543 15 4 15.8954 4 17C4 18.1046 4.89543 19 6 19Z" stroke="#F5F6F8" stroke-width="1.5" stroke-linecap="round" stroke-linejoin="round"/><path d="M9 17H15C16.1046 17 17 16.1046 17 15V13.5" stroke="#F5F6F8" stroke-width="1.5" stroke-linecap="round" stroke-linejoin="round"/></svg>
